# xmcd CD database file
#
# Track frame offsets:
#	150
#	19158
#	38015
#	50914
#	64069
#	83594
#	95424
#	109940
#	123980
#
# Disc length: 1947 seconds
#
# Revision: 0
# Processed by: cddbd v1.5.2PL0 Copyright (c) Steve Scherf et al.
# Submitted via: CDex 1.96
#
DISCID=71079909
DTITLE=Sabertooth Swing - Extinct Possibilities
DYEAR=2017
DGENRE=Jazz
TTITLE0=Alcohol
TTITLE1=Je m'suis fait tout petit - Back to black
TTITLE2=Family Guy
TTITLE3=I Get Ideas
TTITLE4=	After You've Gone
TTITLE5=Mean and Evil Blues
TTITLE6=Wings of a Dove
TTITLE7=Black Trombone
TTITLE8=Mack the Knife
EXTD=YEAR: 2017
EXTT0=
EXTT1=
EXTT2=
EXTT3=
EXTT4=
EXTT5=
EXTT6=
EXTT7=
EXTT8=
PLAYORDER=
